<svg width="98" height="98" viewBox="0 0 98 98" fill="none" xmlns="http://www.w3.org/2000/svg">
<g filter="url(#filter0_d)">
<circle cx="49" cy="45" r="45" fill="#8BB43F"/>
<g clip-path="url(#clip0)">
<path d="M68.0419 71.1972C67.5469 71.1967 67.06 71.0711 66.6263 70.8319L26.3528 48.7415C25.6649 48.3632 25.1548 47.7268 24.9343 46.9718C24.7138 46.2167 24.8009 45.4048 25.1765 44.7141L42.1722 13.5459C42.3587 13.204 42.6104 12.9023 42.9131 12.658C43.2158 12.4136 43.5636 12.2315 43.9364 12.122C44.3093 12.0124 44.7001 11.9776 45.0864 12.0195C45.4727 12.0615 45.8469 12.1793 46.1878 12.3663L86.4614 34.4566C87.1492 34.8349 87.6593 35.4713 87.8798 36.2264C88.1003 36.9814 88.0132 37.7933 87.6376 38.484L70.6419 69.6522C70.4563 69.9948 70.2048 70.297 69.902 70.5414C69.5992 70.7858 69.251 70.9676 68.8777 71.0762C68.6063 71.1562 68.3248 71.197 68.0419 71.1972ZM66.8697 70.3856C67.4401 70.6985 68.1112 70.7713 68.7351 70.588C69.3591 70.4046 69.8849 69.9802 70.1969 69.4081L87.1926 38.2399C87.5038 37.6676 87.576 36.9949 87.3933 36.3693C87.2106 35.7437 86.7879 35.2163 86.218 34.9029L45.9445 12.8125C45.374 12.4997 44.703 12.4269 44.079 12.6102C43.4551 12.7935 42.9292 13.2179 42.6173 13.79L25.6216 44.9582C25.3103 45.5305 25.2382 46.2032 25.4209 46.8288C25.6036 47.4544 26.0262 47.9818 26.5961 48.2952L66.8697 70.3856Z" fill="#F2F2F2"/>
<path d="M68.8723 60.2954C68.4089 60.2951 67.953 60.178 67.5466 59.9549L34.9866 42.0955C34.6698 41.9221 34.3902 41.6878 34.1638 41.4059C33.9374 41.1241 33.7686 40.8002 33.6672 40.4528C33.5657 40.1055 33.5336 39.7415 33.5726 39.3816C33.6116 39.0218 33.7209 38.6732 33.8944 38.3558L44.0447 19.7412C44.2178 19.4237 44.4516 19.1435 44.7327 18.9166C45.0137 18.6897 45.3366 18.5206 45.6829 18.4188C46.0291 18.3171 46.392 18.2848 46.7507 18.3237C47.1094 18.3627 47.4569 18.4721 47.7735 18.6458L80.3335 36.5051C80.6501 36.6787 80.9294 36.9132 81.1557 37.1951C81.3819 37.477 81.5505 37.8008 81.6519 38.1481C81.7534 38.4954 81.7856 38.8593 81.7468 39.2191C81.7079 39.5788 81.5989 39.9274 81.4257 40.2449L81.3886 40.2245L81.4257 40.2449L71.2753 58.8595C71.0407 59.2935 70.6936 59.656 70.2706 59.9087C69.8477 60.1615 69.3646 60.2951 68.8723 60.2954Z" fill="#F2F2F2"/>
<path d="M67.8617 71.188H21.9587C21.2303 71.1872 20.532 70.8966 20.0169 70.3801C19.5019 69.8635 19.2121 69.1631 19.2113 68.4325V32.9077C19.2121 32.1771 19.5019 31.4768 20.0169 30.9602C20.532 30.4436 21.2303 30.153 21.9587 30.1522H67.8617C68.5901 30.153 69.2884 30.4436 69.8035 30.9602C70.3185 31.4768 70.6082 32.1771 70.6091 32.9077V68.4325C70.6082 69.1631 70.3185 69.8635 69.8035 70.3801C69.2884 70.8966 68.5901 71.1872 67.8617 71.188Z" fill="white"/>
<path d="M67.8617 71.4H21.9588C21.1743 71.3991 20.4223 71.0862 19.8676 70.5299C19.3129 69.9736 19.0009 69.2193 19 68.4325V32.9077C19.0009 32.1209 19.3129 31.3667 19.8676 30.8103C20.4223 30.254 21.1743 29.9411 21.9588 29.9402H67.8617C68.6461 29.9411 69.3982 30.254 69.9529 30.8103C70.5075 31.3667 70.8196 32.1209 70.8204 32.9077V68.4325C70.8196 69.2193 70.5075 69.9736 69.9529 70.5299C69.3982 71.0862 68.6461 71.3991 67.8617 71.4ZM21.9588 30.4489C21.3088 30.4497 20.6857 30.7089 20.2261 31.1699C19.7665 31.6308 19.5079 32.2558 19.5072 32.9077V68.4325C19.5079 69.0844 19.7665 69.7094 20.2261 70.1703C20.6857 70.6313 21.3088 70.8906 21.9588 70.8913H67.8617C68.5117 70.8906 69.1348 70.6313 69.5944 70.1703C70.054 69.7094 70.3125 69.0844 70.3132 68.4325V32.9077C70.3125 32.2558 70.054 31.6308 69.5944 31.1699C69.1348 30.7089 68.5117 30.4497 67.8617 30.4489H21.9588Z" fill="#E6E6E6"/>
<path d="M52.0537 41.8345C51.5205 41.8341 50.9944 41.9578 50.5169 42.1959C50.0394 42.4341 49.6235 42.7801 49.302 43.2068C48.9569 43.0578 48.5803 42.9972 48.206 43.0302C47.8318 43.0633 47.4716 43.1891 47.1577 43.3962C46.8439 43.6034 46.5863 43.8855 46.408 44.2171C46.2297 44.5488 46.1363 44.9197 46.1362 45.2965H55.5056C55.5056 44.8419 55.4163 44.3917 55.2429 43.9717C55.0694 43.5516 54.8151 43.17 54.4946 42.8485C54.174 42.527 53.7935 42.272 53.3747 42.098C52.9559 41.924 52.507 41.8345 52.0537 41.8345Z" fill="#E6E6E6"/>
<path d="M31.528 55.3859C34.598 55.3859 37.0868 52.8898 37.0868 49.8107C37.0868 46.7316 34.598 44.2355 31.528 44.2355C28.4579 44.2355 25.9691 46.7316 25.9691 49.8107C25.9691 52.8898 28.4579 55.3859 31.528 55.3859Z" fill="#8BB43F"/>
<path d="M64.088 61.3004C63.8841 61.3486 63.6753 61.3728 63.4659 61.3725H26.3547C25.8976 61.3733 25.4479 61.2574 25.0477 61.0359L25.1466 60.8934L29.2872 54.9136L35.4228 46.0544L35.5124 45.9247L36.4778 44.5308C36.5427 44.437 36.6292 44.3604 36.7301 44.3074C36.8309 44.2545 36.9431 44.2269 37.0569 44.2269C37.1707 44.2269 37.2828 44.2545 37.3837 44.3074C37.4845 44.3604 37.5711 44.437 37.636 44.5308L40.8432 49.1609V49.1618L42.7301 51.8868L47.2342 58.3898L54.0655 48.6098C54.1305 48.5166 54.217 48.4404 54.3177 48.3878C54.4184 48.3352 54.5302 48.3078 54.6437 48.3078C54.7572 48.3078 54.869 48.3352 54.9697 48.3878C55.0703 48.4404 55.1569 48.5166 55.2219 48.6098L59.6042 54.8831L59.8562 55.2434L64.088 61.3004Z" fill="#44532A"/>
<path d="M44.676 47.6153C44.0181 47.6148 43.369 47.7675 42.7799 48.0613C42.1908 48.3551 41.6777 48.782 41.281 49.3084C40.8553 49.1246 40.3906 49.0498 39.9289 49.0906C39.4671 49.1314 39.0227 49.2865 38.6355 49.5421C38.2483 49.7977 37.9305 50.1457 37.7105 50.555C37.4905 50.9642 37.3753 51.4218 37.3752 51.8867H48.9349C48.9349 51.3257 48.8247 50.7703 48.6107 50.2521C48.3967 49.7339 48.083 49.263 47.6875 48.8664C47.292 48.4697 46.8225 48.1551 46.3058 47.9404C45.7891 47.7258 45.2353 47.6153 44.676 47.6153Z" fill="#CCCCCC"/>
<path d="M63.4658 61.4573H26.3546C25.9882 61.4576 25.6253 61.3855 25.2867 61.245C24.9481 61.1045 24.6404 60.8984 24.3813 60.6385C24.1222 60.3786 23.9167 60.0701 23.7766 59.7305C23.6365 59.3909 23.5646 59.0269 23.5649 58.6594V37.4428C23.5658 36.701 23.86 35.9899 24.3829 35.4653C24.9059 34.9408 25.615 34.6458 26.3546 34.6449H63.4658C64.2054 34.6458 64.9145 34.9408 65.4375 35.4653C65.9605 35.9899 66.2547 36.701 66.2555 37.4428V58.6594C66.2559 59.0269 66.1841 59.3909 66.044 59.7306C65.904 60.0702 65.6985 60.3788 65.4394 60.6387C65.1802 60.8986 64.8725 61.1047 64.5339 61.2451C64.1952 61.3856 63.8323 61.4577 63.4658 61.4573ZM26.3546 34.8145C25.6598 34.8153 24.9937 35.0925 24.5024 35.5852C24.0112 36.0779 23.7348 36.746 23.734 37.4428V58.6594C23.7337 59.0046 23.8013 59.3465 23.9328 59.6656C24.0644 59.9846 24.2574 60.2745 24.5008 60.5186C24.7443 60.7627 25.0333 60.9563 25.3514 61.0883C25.6695 61.2203 26.0104 61.288 26.3546 61.2877H63.4658C63.8101 61.2881 64.151 61.2204 64.4692 61.0884C64.7873 60.9565 65.0764 60.7629 65.3198 60.5188C65.5632 60.2746 65.7562 59.9847 65.8878 59.6657C66.0193 59.3466 66.0868 59.0046 66.0864 58.6594V37.4428C66.0857 36.746 65.8093 36.0779 65.318 35.5852C64.8267 35.0925 64.1606 34.8153 63.4658 34.8145H26.3546Z" fill="#1A2700"/>
</g>
</g>
<defs>
<filter id="filter0_d" x="0" y="0" width="98" height="98" filterUnits="userSpaceOnUse" color-interpolation-filters="sRGB">
<feFlood flood-opacity="0" result="BackgroundImageFix"/>
<feColorMatrix in="SourceAlpha" type="matrix" values="0 0 0 0 0 0 0 0 0 0 0 0 0 0 0 0 0 0 127 0"/>
<feOffset dy="4"/>
<feGaussianBlur stdDeviation="2"/>
<feColorMatrix type="matrix" values="0 0 0 0 0 0 0 0 0 0 0 0 0 0 0 0 0 0 0.25 0"/>
<feBlend mode="normal" in2="BackgroundImageFix" result="effect1_dropShadow"/>
<feBlend mode="normal" in="SourceGraphic" in2="effect1_dropShadow" result="shape"/>
</filter>
<clipPath id="clip0">
<rect width="69" height="59.4" fill="white" transform="translate(19 12)"/>
</clipPath>
</defs>
</svg>
