<svg width="615" height="528" viewBox="0 0 615 528" fill="none" xmlns="http://www.w3.org/2000/svg">
<g clip-path="url(#clip0)">
<path d="M437.113 526.189C432.701 526.185 428.361 525.068 424.495 522.942L65.5356 326.583C59.4051 323.221 54.8584 317.563 52.893 310.852C50.9277 304.14 51.7041 296.923 55.052 290.784L206.535 13.7333C208.197 10.6941 210.441 8.01205 213.139 5.84029C215.837 3.66853 218.936 2.04958 222.26 1.07587C225.583 0.102162 229.066 -0.20723 232.509 0.16536C235.952 0.537949 239.288 1.58522 242.326 3.24738L601.286 199.606C607.417 202.968 611.964 208.626 613.929 215.337C615.894 222.049 615.118 229.266 611.77 235.405L460.287 512.456C458.633 515.501 456.391 518.187 453.692 520.36C450.993 522.532 447.89 524.148 444.562 525.113C442.143 525.825 439.634 526.187 437.113 526.189ZM426.665 518.975C431.749 521.756 437.73 522.403 443.291 520.773C448.853 519.144 453.539 515.372 456.32 510.286L607.804 233.235C610.577 228.148 611.221 222.169 609.592 216.608C607.964 211.047 604.197 206.359 599.117 203.573L240.157 7.21431C235.073 4.43315 229.092 3.78612 223.531 5.41553C217.969 7.04495 213.283 10.8174 210.502 15.9029L59.0184 292.954C56.2444 298.041 55.6011 304.021 57.2296 309.581C58.858 315.142 62.6253 319.83 67.7048 322.616L426.665 518.975Z" fill="#F2F2F2"/>
<path d="M444.514 429.293C440.384 429.29 436.321 428.249 432.698 426.266L142.489 267.516C139.666 265.974 137.174 263.891 135.156 261.386C133.138 258.88 131.634 256.001 130.73 252.914C129.825 249.826 129.539 246.591 129.886 243.392C130.234 240.194 131.208 237.095 132.754 234.274L223.225 68.8103C224.768 65.988 226.851 63.4973 229.357 61.4805C231.862 59.4638 234.74 57.9603 237.826 57.0562C240.912 56.152 244.146 55.8647 247.343 56.2108C250.541 56.5569 253.638 57.5296 256.46 59.0732L546.668 217.823C549.49 219.367 551.98 221.451 553.996 223.956C556.013 226.462 557.516 229.341 558.42 232.428C559.324 235.514 559.611 238.749 559.265 241.947C558.919 245.145 557.946 248.243 556.403 251.065L556.073 250.885L556.403 251.065L465.933 416.529C463.841 420.387 460.747 423.609 456.978 425.855C453.208 428.102 448.902 429.289 444.514 429.293Z" fill="#F2F2F2"/>
<path d="M435.506 526.116H26.3715C19.8792 526.109 13.6549 523.526 9.06414 518.934C4.47338 514.342 1.89106 508.116 1.8837 501.623V185.846C1.89106 179.352 4.47338 173.127 9.06414 168.535C13.6549 163.943 19.8792 161.36 26.3715 161.353H435.506C441.999 161.36 448.223 163.943 452.814 168.535C457.404 173.127 459.987 179.352 459.994 185.846V501.623C459.987 508.116 457.404 514.342 452.814 518.934C448.223 523.526 441.999 526.109 435.506 526.116Z" fill="white"/>
<path d="M435.506 528H26.3715C19.3798 527.992 12.6766 525.211 7.73273 520.266C2.78882 515.32 0.00787138 508.616 0 501.623V185.846C0.00787138 178.853 2.78882 172.148 7.73273 167.203C12.6766 162.258 19.3798 159.476 26.3715 159.469H435.506C442.498 159.476 449.201 162.258 454.145 167.203C459.089 172.148 461.87 178.853 461.878 185.846V501.623C461.87 508.616 459.089 515.32 454.145 520.266C449.201 525.211 442.498 527.992 435.506 528ZM26.3715 163.99C20.5783 163.997 15.0243 166.302 10.928 170.399C6.83157 174.496 4.52736 180.052 4.52083 185.846V501.623C4.52736 507.417 6.83157 512.972 10.928 517.07C15.0243 521.167 20.5783 523.472 26.3715 523.478H435.506C441.299 523.472 446.853 521.167 450.95 517.07C455.046 512.972 457.35 507.417 457.357 501.623V185.846C457.35 180.052 455.046 174.496 450.95 170.399C446.853 166.302 441.299 163.997 435.506 163.99H26.3715Z" fill="#E6E6E6"/>
<path d="M294.609 265.195C289.856 265.192 285.167 266.292 280.911 268.408C276.655 270.525 272.949 273.601 270.083 277.394C267.007 276.07 263.65 275.53 260.315 275.824C256.979 276.118 253.768 277.236 250.971 279.078C248.174 280.919 245.878 283.426 244.288 286.375C242.699 289.323 241.867 292.62 241.866 295.969H325.376C325.376 291.928 324.58 287.926 323.034 284.192C321.488 280.459 319.222 277.066 316.365 274.209C313.508 271.351 310.116 269.084 306.383 267.538C302.65 265.991 298.65 265.195 294.609 265.195Z" fill="#E6E6E6"/>
<path d="M111.662 385.652C139.026 385.652 161.208 363.465 161.208 336.095C161.208 308.725 139.026 286.537 111.662 286.537C84.2983 286.537 62.1157 308.725 62.1157 336.095C62.1157 363.465 84.2983 385.652 111.662 385.652Z" fill="#8BB43F"/>
<path d="M401.871 438.226C400.054 438.654 398.193 438.869 396.326 438.867H65.552C61.4782 438.874 57.4697 437.844 53.9033 435.875L54.7848 434.609L91.6898 381.454L146.377 302.706L147.175 301.553L155.78 289.163C156.358 288.329 157.13 287.648 158.029 287.177C158.928 286.707 159.927 286.461 160.941 286.461C161.956 286.461 162.955 286.707 163.854 287.177C164.753 287.648 165.525 288.329 166.103 289.163L194.689 330.319V330.327L211.507 354.549L251.652 412.354L312.54 325.421C313.119 324.592 313.891 323.915 314.788 323.447C315.685 322.98 316.682 322.736 317.693 322.736C318.705 322.736 319.702 322.98 320.599 323.447C321.496 323.915 322.267 324.592 322.847 325.421L361.907 381.183L364.152 384.386L401.871 438.226Z" fill="#44532A"/>
<path d="M228.852 316.58C222.987 316.576 217.202 317.933 211.951 320.544C206.701 323.156 202.127 326.951 198.592 331.63C194.797 329.997 190.656 329.331 186.54 329.694C182.424 330.057 178.463 331.436 175.012 333.708C171.561 335.98 168.728 339.073 166.767 342.711C164.807 346.348 163.78 350.415 163.779 354.548H266.811C266.811 349.562 265.829 344.625 263.921 340.018C262.014 335.412 259.218 331.226 255.693 327.701C252.168 324.175 247.983 321.378 243.378 319.47C238.772 317.562 233.836 316.58 228.852 316.58Z" fill="#CCCCCC"/>
<path d="M396.326 439.62H65.552C62.2859 439.623 59.0513 438.982 56.0332 437.733C53.0152 436.484 50.273 434.653 47.9635 432.343C45.654 430.033 43.8226 427.29 42.5741 424.271C41.3256 421.252 40.6845 418.017 40.6874 414.75V226.159C40.6949 219.565 43.3169 213.243 47.9783 208.581C52.6397 203.919 58.9598 201.296 65.552 201.288H396.326C402.918 201.296 409.238 203.919 413.899 208.581C418.561 213.243 421.183 219.565 421.19 226.159V414.75C421.194 418.017 420.554 421.253 419.305 424.272C418.057 427.291 416.226 430.034 413.916 432.344C411.606 434.655 408.864 436.486 405.845 437.735C402.827 438.983 399.592 439.624 396.326 439.62ZM65.552 202.796C59.3593 202.803 53.4223 205.266 49.0434 209.646C44.6645 214.026 42.2014 219.965 42.1944 226.159V414.75C42.1915 417.819 42.7937 420.858 43.9665 423.694C45.1393 426.53 46.8597 429.107 49.0292 431.277C51.1987 433.447 53.7748 435.167 56.61 436.341C59.4452 437.514 62.4838 438.116 65.552 438.113H396.326C399.394 438.117 402.433 437.515 405.269 436.342C408.104 435.169 410.68 433.448 412.85 431.278C415.02 429.108 416.74 426.531 417.913 423.695C419.085 420.859 419.687 417.819 419.683 414.75V226.159C419.676 219.965 417.213 214.026 412.834 209.646C408.456 205.266 402.518 202.803 396.326 202.796H65.552Z" fill="#1A2700"/>
</g>
<defs>
<clipPath id="clip0">
<rect width="615" height="528" fill="white"/>
</clipPath>
</defs>
</svg>
